<svg xmlns="http://www.w3.org/2000/svg">
  <symbol id="fullscreen" viewBox="0 0 36 36">
    <g>
      <path d="M31.48 31.6299H23.05V35.8599H35.7001V23.1499H31.48V31.6299Z"/>
      <path d="M4.22 23.1499H0V35.8599H12.65V31.6299H4.22V23.1499Z"/>
      <path d="M0 12.71H4.22V4.24H12.65V0H0V12.71Z"/>
      <path d="M23.05 0V4.24H31.48V12.71H35.7001V0H23.05Z"/>
    </g>
  </symbol>
  <symbol id="play" viewBox="0 0 220 220">
    <g>
      <path d="M110 8.89168C130.003 8.88778 149.558 14.816 166.191 25.9266C182.825 37.0372 195.79 52.831 203.446 71.3106C211.103 89.7901 213.107 110.125 209.206 129.744C205.304 149.363 195.672 167.384 181.528 181.528C167.384 195.672 149.363 205.304 129.744 209.206C110.125 213.107 89.7901 211.103 71.3106 203.446C52.8311 195.79 37.0372 182.825 25.9266 166.191C14.816 149.558 8.88776 130.003 8.89167 110C8.92826 83.1956 19.5925 57.4996 38.546 38.546C57.4996 19.5925 83.1956 8.92828 110 8.89168ZM110 0C88.2441 0 66.9767 6.45139 48.8873 18.5383C30.7979 30.6253 16.6989 47.805 8.37324 67.9048C0.0476007 88.0047 -2.13077 110.122 2.1136 131.46C6.35798 152.798 16.8345 172.398 32.2183 187.782C47.602 203.166 67.2022 213.642 88.5401 217.886C109.878 222.131 131.995 219.952 152.095 211.627C172.195 203.301 189.375 189.202 201.462 171.113C213.549 153.023 220 131.756 220 110C220 80.8262 208.411 52.8473 187.782 32.2183C167.153 11.5893 139.174 0 110 0Z"/>
      <path d="M167.954 110L76.5278 49.9119C76.6463 140.498 76.5278 96.0498 76.5278 170.088L167.954 110Z"/>
    </g>
  </symbol>
  <symbol id="playSmall" viewBox="0 0 23 30">
    <g>
      <path d="M22.35 14.75L0 0C0 22.23 0 11.32 0 29.49L22.35 14.75Z"/>
    </g>
  </symbol>
  <symbol id="sound" viewBox="0 0 36 30">
    <g>
      <path d="M18.3326 0C17.8816 0 17.4905 0.156374 17.1604 0.469123L8.48928 8.68426H1.66737C1.21531 8.68426 0.825273 8.84064 0.495164 9.15339C0.165055 9.46614 0 9.83665 0 10.2639V19.7361C0 20.1633 0.165055 20.5339 0.495164 20.8466C0.825273 21.1594 1.21636 21.3157 1.66737 21.3157H8.48928L17.1604 29.5309C17.4905 29.8436 17.8806 30 18.3326 30C18.7847 30 19.1747 29.8436 19.5048 29.5309C19.8349 29.2181 20 28.8486 20 28.4203V1.57968C20 1.15239 19.8349 0.781873 19.5059 0.469123C19.1768 0.156374 18.7857 0 18.3337 0H18.3326Z"/>
      <path d="M28.0399 18.515C28.7419 17.434 29.0929 16.266 29.0929 15.01C29.0929 13.754 28.7419 12.582 28.0399 11.492C27.3379 10.402 26.4099 9.63396 25.2529 9.18796C25.0879 9.10596 24.8809 9.06396 24.6339 9.06396C24.2049 9.06396 23.8329 9.21697 23.5189 9.52197C23.2049 9.82897 23.0479 10.203 23.0479 10.649C23.0479 10.996 23.1469 11.289 23.3459 11.528C23.5449 11.767 23.7829 11.974 24.0639 12.147C24.3439 12.32 24.6249 12.51 24.9059 12.717C25.1869 12.924 25.4259 13.216 25.6239 13.596C25.8219 13.976 25.9209 14.447 25.9209 15.008C25.9209 15.569 25.8219 16.04 25.6239 16.42C25.4259 16.8 25.1869 17.093 24.9059 17.299C24.6249 17.505 24.3439 17.696 24.0639 17.869C23.7829 18.042 23.5439 18.249 23.3459 18.488C23.1479 18.727 23.0479 19.021 23.0479 19.367C23.0479 19.813 23.2059 20.188 23.5189 20.494C23.8329 20.798 24.2039 20.953 24.6339 20.953C24.8809 20.953 25.0879 20.912 25.2529 20.829C26.4089 20.366 27.3379 19.594 28.0399 18.512V18.515Z"/>
      <path d="M33.8744 22.1208C35.2915 19.9463 36 17.5714 36 14.999C36 12.4276 35.2915 10.0547 33.8744 7.87713C32.4574 5.70262 30.5822 4.11727 28.2497 3.12618C28.0337 3.04274 27.8167 3 27.5997 3C27.1667 3 26.7913 3.15976 26.4744 3.47927C26.1574 3.79878 26 4.17629 26 4.61384C26 5.26914 26.325 5.76469 26.975 6.1015C27.9075 6.58891 28.5414 6.95828 28.8744 7.21063C30.1078 8.11829 31.0707 9.25592 31.762 10.6255C32.4534 11.9952 32.7996 13.4523 32.7996 15C32.7996 16.5457 32.4534 18.0038 31.762 19.3745C31.0707 20.7441 30.1078 21.8817 28.8744 22.7894C28.5414 23.0417 27.9075 23.4111 26.975 23.8985C26.325 24.2353 26 24.7298 26 25.3862C26 25.8227 26.1585 26.2012 26.4744 26.5207C26.7903 26.8402 27.1738 27 27.6239 27C27.8238 27 28.0327 26.9573 28.2487 26.8738C30.5811 25.8817 32.4574 24.2984 33.8734 22.1219L33.8744 22.1208Z"/>
    </g>
  </symbol>
  <symbol id="fullscreenExit" viewBox="0 0 36 36">
    <g>
      <path d="M28.2554 7.74495H35.9764V12.8119H23.1874V0.0229492H28.2544V7.74395L28.2554 7.74495ZM23.1884 35.976V23.1869H35.9774V28.2539H28.2564V35.9749H23.1894L23.1884 35.976ZM7.74544 7.74495V0.0239492H12.8124V12.8129H0.0234375V7.74595H7.74444L7.74544 7.74495ZM0.0244375 28.2549V23.1879H12.8134V35.977H7.74644V28.2559H0.0254375L0.0244375 28.2549Z"/>
    </g>
  </symbol>
  <symbol id="mute" viewBox="0 0 36 36">
    <g>
      <path d="M32.2053 15L35.6703 11.535C35.8901 11.3152 36 11.0474 36 10.7337C36 10.4199 35.8901 10.1522 35.6703 9.93234L34.0677 8.32972C33.8478 8.10991 33.5801 8 33.2663 8C32.9526 8 32.6848 8.10991 32.465 8.32972L29 11.7947L25.535 8.32972C25.3152 8.10991 25.0474 8 24.7337 8C24.4199 8 24.1522 8.10991 23.9323 8.32972L22.3297 9.93234C22.1099 10.1522 22 10.4199 22 10.7337C22 11.0474 22.1099 11.3152 22.3297 11.535L25.7947 15L22.3297 18.465C22.1099 18.6848 22 18.9526 22 19.2663C22 19.5801 22.1099 19.8478 22.3297 20.0677L23.9323 21.6703C24.1522 21.8901 24.4199 22 24.7337 22C25.0474 22 25.3152 21.8901 25.535 21.6703L29 18.2053L32.465 21.6703C32.6848 21.8901 32.9516 22 33.2663 22C33.5811 22 33.8478 21.8901 34.0677 21.6703L35.6703 20.0677C35.8901 19.8478 36 19.5801 36 19.2663C36 18.9526 35.8901 18.6848 35.6703 18.465L32.2053 15Z"/>
      <path d="M18.3326 0C17.8816 0 17.4905 0.156374 17.1604 0.469123L8.48928 8.68426H1.66737C1.21531 8.68426 0.825273 8.84064 0.495164 9.15339C0.165055 9.46614 0 9.83665 0 10.2639V19.7361C0 20.1633 0.165055 20.5339 0.495164 20.8466C0.825273 21.1594 1.21636 21.3157 1.66737 21.3157H8.48928L17.1604 29.5309C17.4905 29.8436 17.8806 30 18.3326 30C18.7847 30 19.1747 29.8436 19.5048 29.5309C19.8349 29.2181 20 28.8486 20 28.4203V1.57968C20 1.15239 19.8349 0.781873 19.5059 0.469123C19.1768 0.156374 18.7857 0 18.3337 0H18.3326Z"/>
    </g>
  </symbol>
  <symbol id="pause" viewBox="0 0 21 30">
    <g>
      <path d="M8 29.0471V0.944802C8 0.421605 7.55026 0 6.98347 0H1.01653C0.449742 0 0 0.421605 0 0.944802V29.0471C0 29.5703 0.449742 30 1.01653 30H6.98347C7.55026 30 8 29.5784 8 29.0471Z"/>
      <path d="M19.9835 0H14.0165C13.4584 0 13 0.421605 13 0.944802V29.0471C13 29.5703 13.4497 30 14.0165 30H19.9835C20.5416 30 21 29.5784 21 29.0471V0.944802C21 0.421605 20.5503 0 19.9835 0Z"/>
    </g>
  </symbol>
  <symbol id="shevron" viewBox="0 0 10 12">
    <g>
      <path fill-rule="evenodd" clip-rule="evenodd" d="M0.348163 0.219168C0.748196 -0.125842 1.33192 -0.0559202 1.65195 0.375342L5.82586 6.00004L1.65194 11.6247C1.33192 12.056 0.748195 12.1259 0.348162 11.7809C-0.0518709 11.4359 -0.116729 10.8066 0.203297 10.3753L3.45008 6.00004L0.203298 1.62473C-0.116728 1.19347 -0.05187 0.564177 0.348163 0.219168ZM4.5223 0.219168C4.92234 -0.125841 5.50606 -0.0559197 5.82609 0.375342L10 6.00004L5.82609 11.6247C5.50606 12.056 4.92234 12.1259 4.5223 11.7809C4.12227 11.4359 4.05741 10.8066 4.37744 10.3753L7.62422 6.00004L4.37744 1.62473C4.05741 1.19347 4.12227 0.564178 4.5223 0.219168Z"/>
    </g>
  </symbol>
  <symbol id="facebook" viewBox="0 0 48 48">
    <g>
      <path d="M21.78 34L21.75 25.25H18V21.5H21.75V19C21.75 15.63 23.84 14 26.85 14C28.29 14 29.53 14.1 29.89 14.15V17.68H27.8C26.17 17.68 25.85 18.46 25.85 19.6V21.5H30.5L29.25 25.25H25.85V34H21.78Z"/>
    </g>
  </symbol>
  <symbol id="instagram" viewBox="0 0 48 48">
      <g>
        <path d="M25.02 14C26.82 14 27.2 14.02 28.12 14.06C29.18 14.11 29.91 14.28 30.54 14.53C31.2 14.78 31.76 15.13 32.31 15.68C32.87 16.23 33.21 16.79 33.47 17.45C33.72 18.08 33.88 18.81 33.93 19.88C33.98 20.83 33.99 21.2 33.99 23.2V24.8C33.99 26.8 33.98 27.17 33.93 28.12C33.9143 28.9468 33.7588 29.7651 33.47 30.54C33.21 31.2 32.87 31.76 32.32 32.31C31.76 32.87 31.2 33.21 30.54 33.47C29.91 33.72 29.18 33.88 28.12 33.93C27.17 33.98 26.79 33.99 24.79 33.99H23.2C21.2 33.99 20.83 33.98 19.87 33.93C19.0432 33.9141 18.225 33.7586 17.45 33.47C16.7836 33.2195 16.1797 32.8271 15.68 32.32C15.1678 31.8186 14.7719 31.211 14.52 30.54C14.2317 29.765 14.0761 28.9468 14.06 28.12C14.011 27.0874 13.991 26.0537 14 25.02V22.97C14 21.17 14.02 20.79 14.06 19.87C14.11 18.81 14.28 18.08 14.52 17.45C14.78 16.79 15.12 16.23 15.68 15.68C16.1752 15.1674 16.7805 14.7742 17.45 14.53C18.2245 14.2382 19.0427 14.0793 19.87 14.06C20.79 14.02 21.17 14 22.97 14H25.02ZM25.04 15.8H22.95C21.22 15.8 20.85 15.82 19.95 15.86C18.98 15.9 18.45 16.06 18.1 16.2C17.63 16.38 17.3 16.6 16.95 16.95C16.6 17.3 16.38 17.63 16.2 18.1C16.07 18.45 15.9 18.98 15.86 19.96C15.82 20.86 15.8 21.22 15.8 22.96V25.04C15.8 26.78 15.82 27.14 15.86 28.04C15.9 29.01 16.06 29.54 16.2 29.89C16.38 30.36 16.6 30.69 16.95 31.04C17.3 31.39 17.63 31.61 18.1 31.79C18.45 31.93 18.98 32.09 19.96 32.13C20.93 32.18 21.28 32.19 23.44 32.19H24.55C26.72 32.19 27.06 32.18 28.04 32.13C29.01 32.09 29.54 31.93 29.89 31.79C30.36 31.61 30.69 31.39 31.04 31.04C31.39 30.69 31.61 30.36 31.79 29.89C31.93 29.54 32.09 29.01 32.13 28.04C32.18 27.06 32.19 26.72 32.19 24.55V23.45C32.19 21.28 32.18 20.93 32.13 19.95C32.09 18.98 31.93 18.45 31.79 18.1C31.6291 17.6654 31.3728 17.2725 31.04 16.95C30.7178 16.6169 30.3248 16.3606 29.89 16.2C29.2969 15.9832 28.6715 15.8682 28.04 15.86C27.0408 15.8123 26.0404 15.7923 25.04 15.8ZM24 18.86C25.3619 18.86 26.668 19.401 27.631 20.364C28.594 21.327 29.135 22.6331 29.135 23.995C29.135 25.3569 28.594 26.663 27.631 27.626C26.668 28.589 25.3619 29.13 24 29.13C22.6381 29.13 21.332 28.589 20.369 27.626C19.406 26.663 18.865 25.3569 18.865 23.995C18.865 22.6331 19.406 21.327 20.369 20.364C21.332 19.401 22.6381 18.86 24 18.86ZM24 20.66C23.1155 20.66 22.2673 21.0114 21.6418 21.6368C21.0164 22.2622 20.665 23.1105 20.665 23.995C20.665 24.8795 21.0164 25.7278 21.6418 26.3532C22.2673 26.9786 23.1155 27.33 24 27.33C24.8845 27.33 25.7328 26.9786 26.3582 26.3532C26.9837 25.7278 27.335 24.8795 27.335 23.995C27.335 23.1105 26.9837 22.2622 26.3582 21.6368C25.7328 21.0114 24.8845 20.66 24 20.66ZM29.33 17.46C29.6483 17.46 29.9535 17.5864 30.1786 17.8115C30.4036 18.0365 30.53 18.3417 30.53 18.66C30.53 18.9783 30.4036 19.2835 30.1786 19.5085C29.9535 19.7336 29.6483 19.86 29.33 19.86C29.0118 19.86 28.7065 19.7336 28.4815 19.5085C28.2565 19.2835 28.13 18.9783 28.13 18.66C28.13 18.3417 28.2565 18.0365 28.4815 17.8115C28.7065 17.5864 29.0118 17.46 29.33 17.46Z"/>
      </g>
  </symbol>
  <symbol id="pinterest" viewBox="0 0 48 48">
      <g>
        <path d="M24 14C21.6755 14.0082 19.4264 14.826 17.6395 16.3128C15.8526 17.7995 14.6395 19.8623 14.2087 22.1466C13.7778 24.4309 14.1563 26.7939 15.2789 28.8293C16.4015 30.8648 18.1982 32.4456 20.36 33.3C20.26 32.51 20.19 31.3 20.39 30.43L21.56 25.46C21.56 25.46 21.26 24.86 21.26 23.98C21.26 22.59 22.07 21.56 23.08 21.56C23.93 21.56 24.35 22.2 24.35 22.96C24.35 23.82 23.8 25.1 23.51 26.29C23.27 27.29 24.01 28.1 25 28.1C26.78 28.1 28.14 26.23 28.14 23.53C28.14 21.13 26.42 19.47 23.96 19.47C23.3756 19.4443 22.792 19.5373 22.2446 19.7434C21.6971 19.9495 21.1971 20.2644 20.7746 20.669C20.3522 21.0737 20.0162 21.5598 19.7868 22.0979C19.5574 22.636 19.4394 23.215 19.44 23.8C19.44 24.66 19.77 25.58 20.18 26.08C20.26 26.18 20.27 26.27 20.24 26.37L19.96 27.5C19.92 27.68 19.81 27.73 19.63 27.64C18.37 27.05 17.59 25.24 17.59 23.76C17.59 20.61 19.89 17.72 24.21 17.72C27.67 17.72 30.38 20.18 30.38 23.49C30.38 26.94 28.2 29.71 25.18 29.71C24.18 29.71 23.22 29.18 22.9 28.56L22.27 30.93C21.9748 31.8577 21.5579 32.7421 21.03 33.56C22.4038 33.9816 23.8524 34.1021 25.277 33.9133C26.7016 33.7245 28.0687 33.2309 29.2854 32.4661C30.502 31.7014 31.5395 30.6833 32.3272 29.4814C33.115 28.2795 33.6344 26.9219 33.8501 25.5011C34.0658 24.0804 33.9728 22.6298 33.5774 21.2482C33.1819 19.8666 32.4934 18.5865 31.5586 17.4951C30.6238 16.4036 29.4648 15.5264 28.1604 14.9233C26.8561 14.3202 25.437 14.0053 24 14Z"/>
      </g>
  </symbol>
  <symbol id="twitter" viewBox="0 0 48 48">
      <g>
        <path d="M34 17.88C33.25 18.25 32.5 18.38 31.62 18.5C32.5 18 33.12 17.25 33.37 16.25C32.5606 16.7313 31.6743 17.0696 30.75 17.25C29.9485 16.4623 28.8737 16.0145 27.75 16C25.62 16 23.75 17.88 23.75 20.13C23.75 20.5 23.75 20.75 23.88 21C22.2422 20.9382 20.6364 20.5271 19.1705 19.7941C17.7045 19.0611 16.4121 18.0232 15.38 16.75C15.0081 17.3956 14.8342 18.1363 14.88 18.88C14.8916 19.552 15.0683 20.2108 15.3943 20.7984C15.7204 21.3861 16.186 21.8846 16.75 22.25C16.12 22.25 15.5 22 14.87 21.75C14.87 23.75 16.25 25.38 18.12 25.75C17.75 25.88 17.37 25.88 17 25.88C16.75 25.88 16.5 25.88 16.25 25.75C16.75 27.38 18.25 28.63 20.13 28.63C18.6778 29.7963 16.8622 30.4156 15 30.38H14C15.875 31.5591 18.0355 32.2056 20.25 32.25C27.75 32.25 31.88 26 31.88 20.62V20.12C32.7387 19.5335 33.4617 18.7697 34 17.88Z"/>
      </g>
  </symbol>
  <symbol id="youtube" viewBox="0 0 48 48">
      <g>
        <path d="M22.03 27.38V20.62L27.97 24L22.03 27.38ZM35.23 18.5C35.1026 18.0177 34.8508 17.5773 34.4998 17.2229C34.1488 16.8684 33.711 16.6122 33.23 16.48C31.46 16 24.35 16 24.35 16C24.35 16 17.25 16 15.48 16.48C14.999 16.6122 14.5612 16.8684 14.2102 17.2229C13.8592 17.5773 13.6074 18.0177 13.48 18.5C13 20.28 13 24 13 24C13 24 13 27.72 13.47 29.5C13.5983 29.9835 13.8516 30.4247 14.2044 30.7793C14.5572 31.1338 14.9972 31.3893 15.48 31.52C17.25 32 24.36 32 24.36 32C24.36 32 31.46 32 33.23 31.52C33.711 31.3878 34.1488 31.1316 34.4998 30.7771C34.8508 30.4227 35.1026 29.9823 35.23 29.5C35.71 27.72 35.71 24 35.71 24C35.71 24 35.71 20.28 35.24 18.5H35.23Z"/>
      </g>
  </symbol>
  <symbol id="arrow" viewBox="0 0 28 8">
      <g>
        <path d="M5.34104 8C3.64162 6.31339 1.86127 5.08262 0 4.30769V3.69231C1.86127 2.89459 3.64162 1.66382 5.34104 0H6.75723C5.94798 1.4359 5.1657 2.52991 4.4104 3.28205H28V4.71795H4.4104C5.1657 5.47009 5.94798 6.5641 6.75723 8H5.34104Z"/>
      </g>
  </symbol>
  <symbol id="tick" viewBox="0 0 15 15">
      <g>
        <path d="M10.9425 4.185L6 9.1275L3.3075 6.4425L2.25 7.5L6 11.25L12 5.25L10.9425 4.185ZM7.5 0C3.36 0 0 3.36 0 7.5C0 11.64 3.36 15 7.5 15C11.64 15 15 11.64 15 7.5C15 3.36 11.64 0 7.5 0ZM7.5 13.5C4.185 13.5 1.5 10.815 1.5 7.5C1.5 4.185 4.185 1.5 7.5 1.5C10.815 1.5 13.5 4.185 13.5 7.5C13.5 10.815 10.815 13.5 7.5 13.5Z"/>
      </g>
  </symbol>
  <symbol id="ballot" viewBox="0 0 14 14">
      <g>
        <path d="M7.77778 5.05556H11.6667V3.5H7.77778V5.05556ZM7.77778 10.5H11.6667V8.94444H7.77778V10.5ZM12.4444 14H1.55556C0.7 14 0 13.3 0 12.4444V1.55556C0 0.7 0.7 0 1.55556 0H12.4444C13.3 0 14 0.7 14 1.55556V12.4444C14 13.3 13.3 14 12.4444 14ZM2.33333 6.22222H6.22222V2.33333H2.33333V6.22222ZM3.11111 3.11111H5.44444V5.44444H3.11111V3.11111ZM2.33333 11.6667H6.22222V7.77778H2.33333V11.6667ZM3.11111 8.55556H5.44444V10.8889H3.11111V8.55556Z"/>
      </g>
  </symbol>
  <symbol id="circleArrow" viewBox="0 0 17 17">
      <g>
        <path d="M8.50973 17C10.1905 16.9981 11.833 16.4979 13.2295 15.5627C14.6261 14.6275 15.714 13.2992 16.3559 11.7458C16.9977 10.1924 17.1646 8.48366 16.8354 6.83543C16.5063 5.18721 15.6959 3.67354 14.5066 2.48581C13.3174 1.29807 11.8027 0.489574 10.1541 0.162498C8.50545 -0.164578 6.79685 0.00446612 5.24427 0.648246C3.69168 1.29202 2.36481 2.38166 1.43136 3.77939C0.497914 5.17712 -0.000189845 6.82019 7.43009e-07 8.50096C0.000639607 9.61779 0.221261 10.7236 0.649271 11.7551C1.07728 12.7867 1.7043 13.7238 2.49451 14.5131C3.28473 15.3023 4.22266 15.9281 5.25476 16.3548C6.28686 16.7815 7.3929 17.0008 8.50973 17ZM8.19347 5.28391L12.8799 10.2165L3.50703 10.2165L8.19347 5.28391Z" />
      </g>
  </symbol>
  <symbol id="date" viewBox="0 0 15 15">
      <g>
        <path d="M13.585 1.21691H12.0982V0.498732C12.0982 0.36646 12.045 0.239613 11.9502 0.146082C11.8555 0.052552 11.7269 0 11.5929 0C11.4589 0 11.3303 0.052552 11.2356 0.146082C11.1408 0.239613 11.0875 0.36646 11.0875 0.498732V1.21292H3.91146V0.498732C3.91146 0.36646 3.85822 0.239613 3.76345 0.146082C3.66868 0.052552 3.54014 0 3.40611 0C3.27208 0 3.14354 0.052552 3.04877 0.146082C2.954 0.239613 2.90075 0.36646 2.90075 0.498732V1.21292H1.415C1.04059 1.21292 0.681447 1.35937 0.416228 1.62018C0.151009 1.88099 0.00133717 2.2349 0 2.6044V3.85619H14.996V2.6044C14.9936 2.23629 14.844 1.884 14.5798 1.62417C14.3155 1.36433 13.958 1.21795 13.585 1.21691Z"/>
        <path d="M0 13.6086C0.00133717 13.9781 0.151009 14.3321 0.416228 14.5929C0.681447 14.8537 1.04059 15.0001 1.415 15.0001H13.585C13.9594 15.0001 14.3186 14.8537 14.5838 14.5929C14.849 14.3321 14.9987 13.9781 15 13.6086V4.93066H0V13.6086ZM7.075 11.8681C7.11993 11.3986 7.26002 10.9428 7.48695 10.5278C7.71388 10.1128 8.02302 9.74698 8.396 9.45219C9.09541 8.72802 9.27835 8.50359 9.27835 7.93903C9.27835 7.51011 9.16616 7.17497 8.67192 7.17497C8.17769 7.17497 8.02709 7.53206 8.00384 8.10261H7.11138C7.08791 7.88932 7.11245 7.67355 7.18324 7.4707C7.25404 7.26785 7.36934 7.08292 7.52092 6.92914C7.6725 6.77535 7.85662 6.6565 8.06013 6.58105C8.26364 6.5056 8.48151 6.47542 8.6982 6.49268C8.90216 6.46457 9.10993 6.48291 9.30559 6.54629C9.50126 6.60966 9.67963 6.71641 9.82704 6.85833C9.97446 7.00025 10.087 7.17357 10.156 7.36504C10.2251 7.55652 10.2488 7.76103 10.2254 7.96295C10.2254 8.63226 10.0232 8.98738 9.26016 9.72451C8.78529 10.1283 8.40375 10.628 8.1413 11.1898H10.382L10.2567 11.9189H7.075V11.8681ZM4.67657 6.96749C5.047 6.91625 5.39635 6.76662 5.68728 6.5346H6.30281V11.9209H5.38104V7.53207C5.14897 7.58541 4.91179 7.61417 4.67354 7.61785L4.67657 6.96749Z"/>
      </g>
  </symbol>
  <symbol id="email" viewBox="0 0 15 11">
      <g>
        <path d="M14.443 0.000245271H0.554862C0.481958 8.78986e-05 0.409744 0.0163595 0.342363 0.0481753C0.274982 0.0799912 0.213762 0.126701 0.162211 0.185623C0.11066 0.244546 0.0697941 0.314543 0.0419587 0.391559C0.0141232 0.468575 -0.000136697 0.551124 9.87603e-07 0.634453V10.366C-0.000136697 10.4493 0.0141232 10.5319 0.0419587 10.6089C0.0697941 10.6859 0.11066 10.7559 0.162211 10.8148C0.213762 10.8737 0.274982 10.9204 0.342363 10.9522C0.409744 10.9841 0.481958 11.0004 0.554862 11.0002H14.443C14.516 11.0004 14.5884 10.9841 14.6559 10.9523C14.7234 10.9205 14.7847 10.8738 14.8364 10.8149C14.8882 10.7561 14.9292 10.6861 14.9573 10.6091C14.9853 10.5321 14.9999 10.4494 15 10.366V0.634453C14.9999 0.551012 14.9853 0.468406 14.9573 0.391377C14.9292 0.314347 14.8882 0.244369 14.8364 0.185478C14.7847 0.126587 14.7234 0.0799255 14.6559 0.0481389C14.5884 0.0163523 14.516 8.82793e-05 14.443 0.000245271ZM13.6688 2.88578L7.83908 6.73878H7.37931L1.55173 2.88698C1.48634 2.84354 1.42908 2.7858 1.38322 2.71706C1.33735 2.64832 1.30378 2.56994 1.28443 2.48638C1.26507 2.40281 1.2603 2.31567 1.2704 2.23C1.28049 2.14432 1.30525 2.06177 1.34326 1.98703C1.38127 1.91229 1.43179 1.84686 1.49193 1.79443C1.55207 1.74201 1.62065 1.70364 1.69377 1.68152C1.76688 1.65939 1.84309 1.65394 1.91804 1.66548C1.993 1.67702 2.06523 1.70532 2.13062 1.74876L7.60815 5.37005L13.0857 1.74876C13.1511 1.70532 13.2233 1.67702 13.2983 1.66548C13.3732 1.65394 13.4494 1.65939 13.5225 1.68152C13.5956 1.70364 13.6642 1.74201 13.7244 1.79443C13.7845 1.84686 13.835 1.91229 13.873 1.98703C13.9111 2.06177 13.9358 2.14432 13.9459 2.23C13.956 2.31567 13.9512 2.40281 13.9319 2.48638C13.9125 2.56994 13.8789 2.64832 13.8331 2.71706C13.7872 2.7858 13.73 2.84354 13.6646 2.88698L13.6688 2.88578Z" />
      </g>
  </symbol>
  <symbol id="name" viewBox="0 0 13 15">
      <g>
        <path d="M7.9017 9.45749C7.9017 9.43118 7.91838 9.40973 7.91838 9.38536V7.71004C7.91142 7.66336 7.90132 7.61714 7.88815 7.57165C8.54145 7.19251 9.07974 6.66291 9.45149 6.03359C9.82325 5.40426 10.016 4.69625 10.0114 3.97732C10.0114 1.78058 8.4385 0 6.49976 0C4.56101 0 2.98813 1.77961 2.98813 3.97732C3.00484 4.69886 3.21494 5.40495 3.59918 6.03088C3.98343 6.6568 4.52954 7.18253 5.18746 7.55993C5.1719 7.60906 5.1604 7.65926 5.15306 7.71004V9.3834C5.1558 9.39688 5.15928 9.41023 5.16348 9.42338C2.19283 9.76643 -0.000244141 11.2751 -0.000244141 12.7672C-0.000244141 14.464 2.90891 15 6.49976 15C10.0906 15 12.9998 14.464 12.9998 12.7672C12.9987 11.3131 10.7952 9.84635 7.9017 9.45749Z" />
      </g>
  </symbol>
  <symbol id="time" viewBox="0 0 15 15">
      <g>
        <path d="M7.49142 1.76945e-06C6.00839 0.00169958 4.55915 0.443039 3.32689 1.26822C2.09464 2.0934 1.13468 3.26537 0.568362 4.63602C0.00204669 6.00666 -0.145202 7.51442 0.145226 8.96874C0.435653 10.4231 1.15072 11.7586 2.20004 12.8066C3.24936 13.8546 4.58582 14.568 6.0405 14.8566C7.49518 15.1452 9.00276 14.9961 10.3727 14.428C11.7426 13.86 12.9134 12.8985 13.737 11.6652C14.5607 10.4319 15.0002 8.98218 15 7.49915C14.9994 6.51371 14.8048 5.53802 14.4271 4.62782C14.0495 3.71762 13.4962 2.89073 12.799 2.19436C12.1017 1.49799 11.2741 0.945796 10.3634 0.569285C9.45277 0.192773 8.47685 -0.000674971 7.49142 1.76945e-06ZM10.4004 10.0192C10.3273 10.1214 10.2166 10.1904 10.0926 10.211C9.9686 10.2316 9.84152 10.2022 9.73927 10.1291L6.95478 8.14311V3.93588C6.9492 3.87048 6.95726 3.80465 6.97846 3.74253C6.99965 3.68041 7.03353 3.62336 7.07792 3.57501C7.12232 3.52667 7.17627 3.48806 7.23636 3.46166C7.29645 3.43526 7.36139 3.42162 7.42702 3.42162C7.49266 3.42162 7.55758 3.43526 7.61768 3.46166C7.67777 3.48806 7.73172 3.52667 7.77611 3.57501C7.82051 3.62336 7.85438 3.68041 7.87558 3.74253C7.89677 3.80465 7.90483 3.87048 7.89925 3.93588V7.65713L10.2862 9.36063C10.3372 9.39608 10.3808 9.44124 10.4143 9.49353C10.4479 9.54581 10.4709 9.60421 10.4819 9.66537C10.4929 9.72652 10.4917 9.78923 10.4785 9.84994C10.4652 9.91065 10.4402 9.96816 10.4047 10.0192H10.4004Z" />
      </g>
  </symbol>
  <symbol id="tel" viewBox="0 0 14 23">
      <g>
        <path d="M12.3738 0H1.62824C1.19674 0.00106214 0.783231 0.167559 0.478113 0.463097C0.172995 0.758634 0.00109658 1.15916 0 1.57711V21.4229C0.00109658 21.8408 0.172995 22.2414 0.478113 22.5369C0.783231 22.8324 1.19674 22.9989 1.62824 23H12.3738C12.8051 22.9989 13.2184 22.8324 13.5232 22.5368C13.828 22.2412 13.9995 21.8406 14 21.4229V1.57711C13.9995 1.15935 13.828 0.758814 13.5232 0.463219C13.2184 0.167625 12.8051 0.00106404 12.3738 0ZM3.94496 21.1845H2.19003C2.0347 21.1845 1.88573 21.1247 1.7759 21.0183C1.66606 20.9119 1.60436 20.7677 1.60436 20.6172C1.60436 20.4668 1.66606 20.3225 1.7759 20.2161C1.88573 20.1097 2.0347 20.0499 2.19003 20.0499H3.94496C4.10029 20.0499 4.24926 20.1097 4.35909 20.2161C4.46893 20.3225 4.53063 20.4668 4.53063 20.6172C4.53063 20.7677 4.46893 20.9119 4.35909 21.0183C4.24926 21.1247 4.10029 21.1845 3.94496 21.1845ZM3.94496 19.023H2.19003C2.03497 19.023 1.88627 18.9634 1.77663 18.8572C1.66699 18.751 1.6054 18.6069 1.6054 18.4567C1.6054 18.3066 1.66699 18.1625 1.77663 18.0563C1.88627 17.9501 2.03497 17.8904 2.19003 17.8904H3.94496C4.10002 17.8904 4.24872 17.9501 4.35836 18.0563C4.468 18.1625 4.5296 18.3066 4.5296 18.4567C4.5296 18.6069 4.468 18.751 4.35836 18.8572C4.24872 18.9634 4.10002 19.023 3.94496 19.023ZM3.94496 16.8635H2.19003C2.0347 16.8635 1.88573 16.8037 1.7759 16.6974C1.66606 16.591 1.60436 16.4467 1.60436 16.2962C1.60436 16.1458 1.66606 16.0015 1.7759 15.8951C1.88573 15.7887 2.0347 15.729 2.19003 15.729H3.94496C4.10029 15.729 4.24926 15.7887 4.35909 15.8951C4.46893 16.0015 4.53063 16.1458 4.53063 16.2962C4.53063 16.4467 4.46893 16.591 4.35909 16.6974C4.24926 16.8037 4.10029 16.8635 3.94496 16.8635ZM3.94496 14.702H2.19003C2.0347 14.702 1.88573 14.6423 1.7759 14.5359C1.66606 14.4295 1.60436 14.2852 1.60436 14.1347C1.60436 13.9843 1.66606 13.84 1.7759 13.7336C1.88573 13.6272 2.0347 13.5674 2.19003 13.5674H3.94496C4.10029 13.5674 4.24926 13.6272 4.35909 13.7336C4.46893 13.84 4.53063 13.9843 4.53063 14.1347C4.53063 14.2852 4.46893 14.4295 4.35909 14.5359C4.24926 14.6423 4.10029 14.702 3.94496 14.702ZM7.87747 21.1855H6.12461C5.96928 21.1855 5.82031 21.1257 5.71048 21.0193C5.60065 20.913 5.53894 20.7687 5.53894 20.6182C5.53894 20.4678 5.60065 20.3235 5.71048 20.2171C5.82031 20.1107 5.96928 20.0509 6.12461 20.0509H7.87747C8.03279 20.0509 8.18176 20.1107 8.2916 20.2171C8.40143 20.3235 8.46313 20.4678 8.46313 20.6182C8.46313 20.7687 8.40143 20.913 8.2916 21.0193C8.18176 21.1257 8.03279 21.1855 7.87747 21.1855ZM7.87747 19.024H6.12461C6.04784 19.024 5.97181 19.0093 5.90088 18.9809C5.82995 18.9524 5.7655 18.9107 5.71121 18.8581C5.65692 18.8056 5.61386 18.7431 5.58448 18.6744C5.5551 18.6057 5.53998 18.5321 5.53998 18.4577C5.53998 18.3834 5.5551 18.3097 5.58448 18.241C5.61386 18.1723 5.65692 18.1099 5.71121 18.0573C5.7655 18.0047 5.82995 17.963 5.90088 17.9346C5.97181 17.9061 6.04784 17.8915 6.12461 17.8915H7.87747C7.95424 17.8915 8.03026 17.9061 8.10119 17.9346C8.17212 17.963 8.23658 18.0047 8.29086 18.0573C8.34515 18.1099 8.38822 18.1723 8.4176 18.241C8.44698 18.3097 8.4621 18.3834 8.4621 18.4577C8.4621 18.5321 8.44698 18.6057 8.4176 18.6744C8.38822 18.7431 8.34515 18.8056 8.29086 18.8581C8.23658 18.9107 8.17212 18.9524 8.10119 18.9809C8.03026 19.0093 7.95424 19.024 7.87747 19.024ZM7.87747 16.8645H6.12461C5.96928 16.8645 5.82031 16.8048 5.71048 16.6984C5.60065 16.592 5.53894 16.4477 5.53894 16.2972C5.53894 16.1468 5.60065 16.0025 5.71048 15.8961C5.82031 15.7897 5.96928 15.73 6.12461 15.73H7.87747C8.03279 15.73 8.18176 15.7897 8.2916 15.8961C8.40143 16.0025 8.46313 16.1468 8.46313 16.2972C8.46313 16.4477 8.40143 16.592 8.2916 16.6984C8.18176 16.8048 8.03279 16.8645 7.87747 16.8645ZM7.87747 14.703H6.12461C6.0477 14.703 5.97154 14.6884 5.90048 14.6598C5.82943 14.6313 5.76486 14.5895 5.71048 14.5369C5.6561 14.4842 5.61295 14.4217 5.58352 14.3528C5.55409 14.284 5.53894 14.2102 5.53894 14.1357C5.53894 14.0612 5.55409 13.9875 5.58352 13.9187C5.61295 13.8498 5.6561 13.7873 5.71048 13.7346C5.76486 13.6819 5.82943 13.6401 5.90048 13.6116C5.97154 13.5831 6.0477 13.5685 6.12461 13.5685H7.87747C7.95438 13.5685 8.03053 13.5831 8.10159 13.6116C8.17265 13.6401 8.23721 13.6819 8.2916 13.7346C8.34598 13.7873 8.38912 13.8498 8.41856 13.9187C8.44799 13.9875 8.46313 14.0612 8.46313 14.1357C8.46313 14.2102 8.44799 14.284 8.41856 14.3528C8.38912 14.4217 8.34598 14.4842 8.2916 14.5369C8.23721 14.5895 8.17265 14.6313 8.10159 14.6598C8.03053 14.6884 7.95438 14.703 7.87747 14.703ZM11.81 21.1865H10.055C9.89971 21.1865 9.75074 21.1267 9.64091 21.0204C9.53107 20.914 9.46937 20.7697 9.46937 20.6192C9.46937 20.4688 9.53107 20.3245 9.64091 20.2181C9.75074 20.1117 9.89971 20.052 10.055 20.052H11.81C11.9653 20.052 12.1143 20.1117 12.2241 20.2181C12.3339 20.3245 12.3956 20.4688 12.3956 20.6192C12.3956 20.7697 12.3339 20.914 12.2241 21.0204C12.1143 21.1267 11.9653 21.1865 11.81 21.1865ZM11.81 19.025H10.055C9.89998 19.025 9.75128 18.9653 9.64164 18.8591C9.532 18.753 9.47041 18.6089 9.47041 18.4587C9.47041 18.3085 9.532 18.1645 9.64164 18.0583C9.75128 17.9521 9.89998 17.8925 10.055 17.8925H11.81C11.965 17.8925 12.1137 17.9521 12.2234 18.0583C12.333 18.1645 12.3946 18.3085 12.3946 18.4587C12.3946 18.6089 12.333 18.753 12.2234 18.8591C12.1137 18.9653 11.965 19.025 11.81 19.025ZM11.81 16.8655H10.055C9.97813 16.8655 9.90197 16.8509 9.83091 16.8223C9.75985 16.7938 9.69529 16.7521 9.64091 16.6994C9.58652 16.6467 9.54338 16.5842 9.51395 16.5153C9.48452 16.4465 9.46937 16.3727 9.46937 16.2982C9.46937 16.2237 9.48452 16.15 9.51395 16.0812C9.54338 16.0123 9.58652 15.9498 9.64091 15.8971C9.69529 15.8444 9.75985 15.8026 9.83091 15.7741C9.90197 15.7456 9.97813 15.731 10.055 15.731H11.81C11.8869 15.731 11.963 15.7456 12.0341 15.7741C12.1052 15.8026 12.1697 15.8444 12.2241 15.8971C12.2785 15.9498 12.3216 16.0123 12.3511 16.0812C12.3805 16.15 12.3956 16.2237 12.3956 16.2982C12.3956 16.3727 12.3805 16.4465 12.3511 16.5153C12.3216 16.5842 12.2785 16.6467 12.2241 16.6994C12.1697 16.7521 12.1052 16.7938 12.0341 16.8223C11.963 16.8509 11.8869 16.8655 11.81 16.8655ZM11.81 14.704H10.055C9.89971 14.704 9.75074 14.6442 9.64091 14.5379C9.53107 14.4315 9.46937 14.2872 9.46937 14.1367C9.46937 13.9863 9.53107 13.842 9.64091 13.7356C9.75074 13.6292 9.89971 13.5695 10.055 13.5695H11.81C11.9653 13.5695 12.1143 13.6292 12.2241 13.7356C12.3339 13.842 12.3956 13.9863 12.3956 14.1367C12.3956 14.2872 12.3339 14.4315 12.2241 14.5379C12.1143 14.6442 11.9653 14.704 11.81 14.704ZM12.433 12.2619H1.56905V1.85171H12.4299L12.433 12.2619Z" />
      </g>
  </symbol>
</svg>